<?xml version="1.0" standalone="no"?>
<!DOCTYPE svg PUBLIC "-//W3C//DTD SVG 20010904//EN"
 "http://www.w3.org/TR/2001/REC-SVG-20010904/DTD/svg10.dtd">
<svg version="1.0" xmlns="http://www.w3.org/2000/svg"
 width="990.000000pt" height="990.000000pt" viewBox="0 0 990.000000 990.000000"
 preserveAspectRatio="xMidYMid meet">
<metadata>
Created by potrace 1.11, written by Peter Selinger 2001-2013
</metadata>
<g transform="translate(0.000000,990.000000) scale(0.100000,-0.100000)"
fill="#000000" stroke="none">
<path d="M4216 8796 c5 -41 10 -74 19 -116 3 -14 8 -41 10 -60 2 -19 7 -46 10
-60 12 -60 24 -132 23 -138 -1 -4 1 -14 5 -22 3 -8 8 -37 12 -65 9 -66 9 -66
39 -240 15 -82 29 -166 32 -185 2 -19 7 -46 10 -60 3 -13 8 -40 10 -60 4 -33
7 -47 17 -95 3 -11 8 -40 11 -65 3 -25 8 -56 11 -70 11 -56 47 -266 49 -284 1
-19 40 -32 141 -49 17 -3 64 -12 105 -21 41 -8 86 -17 100 -20 14 -3 34 -7 45
-9 11 -2 38 -8 60 -12 22 -5 42 -9 45 -10 3 0 28 -5 55 -10 65 -11 69 -12 124
-24 25 -6 58 -13 74 -16 15 -3 38 -7 52 -10 14 -3 35 -7 48 -9 12 -2 33 -7 47
-10 14 -3 36 -8 50 -10 14 -2 59 -11 100 -20 76 -15 108 -22 158 -31 25 -5 65
-14 102 -22 34 -8 70 -12 70 -8 0 6 -28 40 -56 69 -11 11 -54 59 -95 106 -41
46 -83 94 -94 106 -11 12 -40 45 -65 73 -25 28 -58 66 -75 85 -16 18 -57 64
-90 101 -33 37 -82 92 -110 123 -72 81 -86 95 -130 147 -22 26 -58 66 -80 90
-22 24 -65 71 -95 106 -30 34 -60 67 -65 73 -6 6 -46 52 -90 101 -43 50 -86
97 -94 106 -9 9 -41 44 -71 79 -30 35 -60 68 -65 74 -6 6 -47 52 -90 101 -44
50 -84 95 -90 101 -12 13 -123 138 -158 179 l-26 30 5 -39z"/>
<path d="M4190 8005 c-2 -90 -4 -184 -14 -490 -4 -115 -9 -269 -11 -342 -1
-72 -5 -136 -9 -141 -8 -13 3 -42 15 -42 5 0 9 5 9 10 0 6 9 21 20 33 48 52
150 189 145 197 -2 4 -7 27 -10 51 -3 24 -8 55 -11 69 -3 14 -7 39 -10 55 -3
17 -7 41 -10 55 -3 14 -7 40 -9 58 -2 18 -6 41 -9 50 -3 9 -8 37 -11 62 -3 25
-10 59 -14 75 -4 17 -7 40 -6 53 1 12 -2 22 -7 22 -5 0 -7 3 -5 8 3 4 -1 42
-9 86 -7 43 -16 95 -19 115 -3 20 -9 50 -14 66 -8 24 -10 15 -11 -50z"/>
<path d="M4621 7033 c24 -32 45 -60 48 -63 3 -3 20 -25 36 -50 17 -25 36 -51
43 -59 7 -8 21 -26 30 -40 9 -14 39 -56 67 -93 27 -37 77 -104 110 -150 33
-46 63 -84 67 -86 5 -2 8 -8 8 -13 0 -8 65 -99 115 -161 7 -9 18 -25 24 -36 6
-11 17 -26 23 -34 7 -7 42 -53 78 -103 35 -49 69 -95 75 -102 5 -6 26 -35 45
-63 30 -44 104 -145 128 -175 4 -5 54 -74 111 -152 56 -79 106 -145 110 -148
9 -5 20 36 26 95 2 19 6 46 9 60 8 34 19 100 22 130 1 14 3 25 4 25 2 0 7 26
14 73 3 22 7 51 10 64 3 12 7 37 10 53 2 17 11 71 20 120 8 50 18 106 20 125
3 19 10 58 15 87 6 29 13 74 16 100 4 26 9 56 11 65 3 10 7 28 9 40 16 101 28
176 31 193 17 84 18 82 -23 90 -21 4 -47 9 -58 10 -11 2 -77 15 -148 30 -70
14 -137 28 -150 29 -12 2 -29 6 -37 8 -23 8 -175 38 -220 43 -14 2 -25 4 -25
5 0 1 -7 3 -15 5 -8 1 -40 8 -70 14 -75 15 -100 20 -135 26 -16 3 -38 8 -48
11 -11 3 -29 7 -40 9 -12 2 -35 6 -52 10 -16 3 -64 12 -105 20 -41 8 -109 22
-150 30 -41 8 -81 15 -88 15 -7 0 6 -26 29 -57z"/>
<path d="M4405 7067 c-6 -7 -35 -43 -65 -82 -30 -38 -58 -74 -62 -80 -16 -20
-234 -301 -278 -360 -25 -32 -53 -68 -62 -79 -50 -60 -148 -187 -148 -192 0
-3 -11 -18 -24 -32 -14 -15 -98 -121 -187 -237 -90 -115 -168 -216 -174 -223
-5 -7 -18 -22 -27 -33 -10 -10 -18 -22 -18 -25 0 -3 -6 -11 -12 -18 -7 -7 -22
-25 -33 -40 -30 -42 -99 -130 -105 -136 -4 -3 -30 -36 -59 -75 -60 -78 -86
-112 -151 -195 -25 -31 -56 -72 -70 -90 -14 -19 -35 -46 -47 -61 -29 -34 -29
-37 5 -33 15 2 56 6 92 10 36 3 79 8 95 10 17 2 57 6 89 9 32 2 75 7 95 9 20
3 65 8 101 12 36 3 79 8 95 9 17 2 60 7 96 10 36 3 76 7 88 10 12 2 52 7 89
10 80 7 134 13 187 19 22 3 72 8 110 11 39 4 81 8 95 10 14 2 54 7 90 10 36 3
81 8 100 10 102 12 159 18 280 30 36 3 76 8 90 10 14 2 59 7 100 10 41 4 89 9
105 11 17 3 57 7 90 9 33 2 70 7 83 9 12 3 59 8 105 11 45 3 89 8 97 10 8 2
49 7 90 10 41 3 82 8 90 10 16 4 161 18 198 18 12 1 22 4 22 8 0 9 -112 163
-122 167 -4 2 -8 8 -8 14 0 5 -6 15 -12 23 -27 28 -48 56 -48 63 0 5 -8 17
-18 28 -10 10 -29 35 -42 54 -13 19 -30 41 -37 48 -7 8 -18 23 -24 35 -7 11
-16 26 -20 31 -20 24 -63 83 -286 391 -128 176 -236 325 -240 330 -5 6 -87
118 -183 250 -96 132 -178 242 -182 243 -5 2 -8 10 -8 18 0 17 -11 18 -25 1z"/>
<path d="M6085 6663 c-4 -10 -9 -34 -11 -53 -4 -32 -16 -102 -29 -175 -3 -16
-8 -46 -10 -65 -3 -19 -8 -46 -12 -60 -3 -14 -6 -28 -5 -33 1 -4 -3 -28 -8
-53 -11 -48 -22 -118 -23 -146 -1 -10 -5 -18 -10 -18 -4 0 -6 -4 -3 -9 3 -5 1
-33 -4 -62 -6 -30 -13 -70 -16 -89 -2 -19 -9 -55 -13 -80 -5 -25 -9 -52 -9
-60 -1 -8 -3 -22 -5 -30 -5 -20 -16 -78 -21 -115 -2 -16 -11 -74 -21 -128 -9
-53 -15 -103 -13 -109 4 -11 27 -18 148 -44 14 -3 41 -9 60 -14 19 -5 46 -11
60 -14 31 -5 204 -45 273 -62 12 -3 31 -7 42 -9 11 -2 63 -13 115 -25 52 -12
105 -24 117 -26 12 -2 69 -15 125 -29 57 -13 117 -26 135 -29 18 -4 43 -10 56
-15 14 -6 27 -7 30 -4 3 3 12 1 19 -3 15 -10 38 -14 38 -8 0 9 -204 329 -212
332 -4 2 -8 8 -8 14 0 5 -10 24 -22 41 -13 18 -23 34 -23 37 -1 7 -58 93 -72
108 -7 7 -13 20 -13 28 0 8 -3 14 -7 14 -5 0 -21 23 -38 51 -16 28 -37 62 -45
75 -8 13 -33 51 -54 86 -22 35 -42 65 -45 68 -7 6 -29 40 -37 58 -6 12 -226
360 -254 402 -36 53 -122 188 -130 205 -33 63 -37 67 -45 48z"/>
<path d="M5586 5223 c-2 -2 -29 -5 -62 -8 -32 -3 -81 -8 -109 -11 -27 -3 -70
-7 -95 -10 -25 -3 -63 -7 -85 -9 -73 -8 -119 -13 -200 -20 -44 -3 -87 -8 -95
-10 -8 -2 -49 -7 -90 -11 -41 -3 -88 -8 -105 -10 -16 -2 -48 -6 -70 -8 -35 -3
-103 -11 -200 -22 -16 -2 -59 -6 -95 -9 -36 -3 -81 -7 -100 -10 -19 -2 -57 -6
-85 -9 -27 -3 -75 -8 -105 -12 -30 -3 -71 -8 -90 -9 -19 -2 -59 -6 -87 -9 -29
-3 -74 -8 -100 -11 -27 -3 -68 -7 -93 -10 -25 -3 -70 -8 -100 -10 -30 -3 -68
-7 -85 -9 -16 -2 -59 -7 -95 -11 -61 -6 -92 -9 -200 -20 -85 -8 -155 -16 -185
-21 -16 -2 -59 -7 -95 -10 -36 -3 -74 -6 -85 -8 -11 -2 -30 -4 -42 -5 -21 -1
-22 -3 -11 -28 7 -16 20 -40 31 -55 10 -16 15 -28 11 -28 -3 0 -1 -7 6 -15 7
-8 24 -38 40 -67 46 -91 135 -260 177 -338 22 -41 65 -122 96 -180 30 -58 73
-139 95 -181 59 -112 168 -319 230 -439 30 -58 61 -115 69 -128 8 -13 49 -90
90 -170 42 -81 95 -182 119 -224 23 -43 40 -78 37 -78 -3 0 1 -8 9 -17 8 -10
26 -40 40 -68 14 -27 43 -84 65 -125 36 -67 109 -206 188 -358 15 -29 31 -50
35 -45 4 4 29 49 55 98 27 50 52 96 58 103 5 6 6 12 2 12 -5 0 -2 8 6 18 8 9
27 40 41 67 14 28 50 95 79 150 28 55 64 123 78 150 14 28 30 53 36 57 5 4 6
8 1 8 -5 0 -4 6 2 13 5 6 41 73 80 147 39 74 94 180 124 235 29 55 71 136 93
180 22 44 43 82 46 85 3 3 25 43 49 90 24 47 58 112 75 145 18 33 52 98 76
145 24 47 48 88 54 92 5 4 6 8 1 8 -5 0 -4 6 2 13 9 11 23 37 139 257 28 52
73 138 101 190 27 52 74 141 104 198 29 57 67 129 83 160 130 244 121 220 79
219 -19 -1 -36 -3 -38 -4z"/>
<path d="M5955 5135 c24 -46 57 -108 73 -137 16 -29 49 -91 72 -138 24 -47 52
-97 62 -112 11 -16 16 -28 12 -28 -3 0 -2 -6 4 -12 11 -14 48 -83 135 -248 30
-58 71 -136 92 -175 20 -38 56 -106 79 -150 22 -44 43 -82 46 -85 3 -3 28 -50
55 -105 28 -55 52 -102 55 -105 3 -3 30 -52 59 -110 30 -58 57 -109 61 -115 4
-5 39 -71 78 -147 39 -75 80 -151 90 -170 10 -18 51 -94 90 -168 130 -249 147
-280 152 -280 3 0 5 467 5 1037 0 848 -2 1040 -13 1046 -7 5 -25 11 -40 13
-15 3 -36 7 -47 9 -11 3 -40 9 -65 14 -25 5 -74 17 -110 26 -36 9 -74 17 -85
19 -11 2 -30 6 -42 10 -12 4 -32 9 -45 11 -21 4 -37 8 -95 20 -13 3 -33 7 -45
11 -13 3 -34 7 -48 10 -13 3 -63 14 -110 25 -47 12 -96 22 -110 25 -14 2 -41
8 -60 13 -19 5 -80 19 -135 31 -55 12 -113 25 -130 30 -16 4 -42 11 -57 14
l-27 6 44 -85z"/>
<path d="M5769 5138 c-6 -12 -24 -45 -39 -73 -15 -27 -47 -88 -71 -135 -23
-47 -49 -93 -57 -102 -9 -10 -12 -18 -7 -18 4 0 3 -6 -3 -12 -10 -13 -61 -109
-151 -283 -25 -49 -48 -92 -51 -95 -3 -3 -23 -41 -46 -85 -22 -44 -67 -129
-99 -190 -32 -60 -69 -132 -83 -160 -13 -27 -27 -52 -31 -55 -3 -3 -27 -48
-54 -100 -26 -52 -72 -142 -103 -200 -60 -113 -130 -245 -214 -405 -29 -55
-71 -136 -95 -180 -23 -44 -68 -129 -100 -190 -32 -60 -75 -141 -95 -180 -21
-38 -59 -113 -86 -165 -27 -52 -54 -101 -61 -108 -7 -8 -11 -18 -8 -23 4 -5 2
-9 -2 -9 -5 0 -14 -14 -20 -30 l-12 -31 57 6 c31 4 77 8 102 10 25 3 65 7 90
11 25 3 61 8 80 9 42 3 134 13 210 21 30 4 66 8 80 9 14 2 54 6 90 10 93 10
106 12 195 20 44 4 89 9 100 11 19 4 131 15 190 20 17 1 30 3 30 4 0 1 18 3
40 5 22 1 67 6 100 10 33 4 71 8 85 10 14 1 52 5 85 9 133 15 162 18 200 21
97 10 148 15 183 20 20 3 62 7 92 10 30 2 75 7 100 9 104 12 172 20 270 30 36
4 81 9 100 11 19 3 60 7 90 10 30 3 71 7 90 10 19 3 67 8 105 11 75 6 95 15
78 36 -6 7 -35 60 -65 118 -30 58 -73 139 -95 180 -22 41 -66 125 -98 185 -32
61 -70 133 -85 160 -15 28 -42 79 -60 115 -19 36 -42 77 -53 93 -10 15 -15 27
-12 27 4 0 -1 12 -11 28 -10 15 -29 47 -42 72 -47 88 -125 236 -172 326 -26
49 -61 115 -77 145 -26 46 -88 164 -185 349 -12 25 -25 47 -28 50 -3 3 -30 55
-60 115 -30 61 -57 112 -60 115 -3 3 -13 21 -22 40 -10 19 -38 73 -63 120 -26
47 -69 128 -96 180 -28 52 -52 96 -54 98 -2 2 -9 -7 -16 -20z"/>
<path d="M2770 3657 l0 -1046 58 -11 c31 -6 66 -14 77 -18 11 -3 25 -7 32 -8
6 -1 55 -12 108 -24 53 -12 102 -23 108 -24 7 -2 23 -6 37 -9 14 -3 126 -29
250 -57 124 -28 236 -54 250 -57 14 -3 31 -7 39 -9 7 -1 34 -8 60 -14 25 -6
56 -12 69 -15 13 -2 31 -6 40 -9 9 -3 29 -8 45 -11 15 -3 38 -7 52 -10 14 -3
25 -3 25 0 0 2 -24 51 -54 107 -30 57 -73 139 -96 182 -39 76 -96 182 -146
274 -13 23 -24 49 -24 57 0 8 -4 15 -8 15 -5 0 -17 19 -28 43 -10 23 -21 44
-24 47 -3 3 -18 32 -35 65 -16 33 -40 77 -53 98 -12 20 -19 37 -15 37 5 0 4 4
-2 8 -5 4 -23 32 -38 62 -39 74 -150 287 -202 385 -103 194 -131 247 -192 364
-36 68 -83 158 -105 200 -22 42 -63 119 -91 171 -101 191 -129 245 -133 249
-2 2 -4 -466 -4 -1042z"/>
<path d="M6907 2454 c-1 -1 -33 -5 -72 -9 -38 -3 -83 -8 -100 -10 -16 -3 -55
-7 -85 -10 -30 -2 -68 -6 -85 -9 -16 -2 -61 -7 -100 -11 -38 -3 -101 -10 -140
-15 -38 -5 -73 -6 -77 -4 -4 3 -8 2 -8 -3 0 -4 -17 -8 -38 -9 -81 -2 -162 -9
-162 -14 0 -3 -12 -5 -27 -6 -40 -1 -163 -13 -193 -18 -14 -3 -52 -7 -85 -11
-33 -3 -85 -8 -115 -11 -30 -3 -71 -7 -90 -9 -19 -2 -55 -6 -80 -9 -25 -3 -72
-8 -105 -11 -33 -3 -73 -8 -90 -10 -32 -5 -107 -13 -195 -21 -30 -2 -71 -7
-90 -10 -36 -5 -151 -16 -182 -17 -10 -1 -18 -4 -18 -7 0 -3 -19 -5 -43 -6
-39 -1 -81 -4 -212 -19 -27 -3 -68 -7 -91 -9 -22 -1 -45 -5 -50 -8 -5 -3 -24
-5 -42 -3 -18 1 -35 -2 -38 -7 -3 -5 27 -54 68 -109 40 -56 87 -122 105 -148
17 -25 37 -52 44 -60 7 -8 28 -37 47 -65 20 -28 39 -52 44 -54 4 -2 8 -8 8
-13 0 -4 26 -43 58 -86 32 -43 77 -105 100 -138 78 -112 141 -200 154 -215 7
-8 24 -30 37 -50 13 -19 25 -36 26 -38 3 -4 109 62 240 149 50 32 97 62 105
66 8 3 29 16 45 28 17 12 93 62 170 111 77 48 145 92 150 96 6 5 71 47 145 94
74 47 160 103 192 125 31 21 59 39 63 39 3 0 11 5 18 10 7 6 48 34 92 62 102
64 166 105 185 118 17 12 314 202 405 260 33 21 65 43 71 48 6 6 25 17 42 26
39 20 49 35 22 33 -12 -1 -22 -2 -23 -3z"/>
<path d="M3080 2397 c4 -4 253 -166 350 -227 8 -5 39 -25 67 -45 29 -19 57
-35 63 -35 5 0 10 -4 10 -9 0 -5 14 -14 30 -21 17 -7 30 -16 30 -21 0 -5 4 -9
10 -9 5 0 42 -22 82 -48 40 -27 97 -64 127 -83 50 -31 305 -195 341 -219 63
-41 98 -64 195 -125 61 -38 112 -73 113 -77 2 -5 7 -8 12 -8 4 0 46 -25 91
-55 46 -30 85 -52 87 -50 3 3 -34 61 -48 75 -7 7 -154 210 -209 290 -25 36
-48 67 -51 70 -4 3 -22 28 -40 55 -19 28 -38 55 -42 60 -5 6 -26 35 -48 65
-22 30 -47 64 -55 75 -9 11 -28 39 -43 62 -26 42 -37 49 -84 59 -13 3 -32 7
-43 9 -11 3 -29 7 -40 9 -18 4 -162 37 -225 52 -14 4 -34 8 -45 9 -11 2 -60
13 -110 25 -49 12 -97 23 -105 25 -23 5 -203 45 -225 51 -11 3 -33 7 -50 10
-16 3 -37 8 -45 11 -8 3 -20 7 -26 8 -6 2 -27 6 -45 10 -19 4 -32 5 -29 2z"/>
</g>
</svg>
